# xmcd
#
# Track frame offsets: 
#        150
#        14850
#        31650
#        45750
#        70650
#        84415
#        95857
#        127610
#        143661
#        146982
#        170572
#        183840
#        206481
#        236980
#        256090
#        279866
#        301228
#        305380
#
# Disc length: 4387 seconds
#
# Revision: 0
# Processed by: cddbd v1.4PL0 Copyright (c) Steve Scherf et al.
# Submitted via: ExactAudioCopy v0.90b3
#
DISCID=ed112112
DTITLE=Various Artist - Various Artists - Sheryl Crow - Live Bootleg 
DTITLE=(Disk 2)
DYEAR=2002
DGENRE=Rock
TTITLE0=Sheryl Crow with Dixie Chicks - Strong enough
TTITLE1=Sheryl Crow with Emmylou Harris and M.J. Carpenter /Flesh and bl
TTITLE1=ood
TTITLE2=Sheryl Crow with Indigo Girls - Tried to be true
TTITLE3=Sheryl Crow with Sarah McLachlan - Angel
TTITLE4=Sheryl Crow with Sarah McLachlan - Yellow taxi
TTITLE5=Sheryl Crow with Mary J. Blige - Rockin'around the christmas t
TTITLE5=ree 
TTITLE6=Sheryl Crow with Stevie Nicks - The difficult kind
TTITLE7=Sheryl Crow with Jon Bon Jovi and Eric Clapton - Sana Claus is c
TTITLE7=oming to town
TTITLE8=Sheryl Crow with Neil Finn - Intro 
TTITLE9=Sheryl Crow with Neil Finn - Weather with you
TTITLE10=Sheryl Crow with Neil Finn - Souvenir
TTITLE11=Sheryl Crow with Neil Finn - She will have her way
TTITLE12=Sheryl Crow with Counting Crows - Pale blue eyes
TTITLE13=Sheryl Crow with Counting Crows - Do right woman
TTITLE14=Sheryl Crow with Phil Cody - Unmarried ladies
TTITLE15=Sheryl Crow with Wyclef Jean and Bono - New day
TTITLE16=Sheryl Crow with Melissa Etheridge - Rehearsal Song
TTITLE17=Sheryl Crow with Guess Who ? - Put a little love in your hear
TTITLE17=t
EXTD=
EXTT0=
EXTT1=
EXTT2=
EXTT3=
EXTT4=
EXTT5=
EXTT6=
EXTT7=
EXTT8=
EXTT9=
EXTT10=
EXTT11=
EXTT12=
EXTT13=
EXTT14=
EXTT15=
EXTT16=
EXTT17=
PLAYORDER=
